<svg width="214" height="74" viewBox="0 0 214 74" fill="none" xmlns="http://www.w3.org/2000/svg">
<path d="M0.380005 72V2.56H13.54L14.8 12.36C17.04 8.81333 19.98 6.01333 23.62 3.96C27.3533 1.90666 31.6467 0.879997 36.5 0.879997C47.5133 0.879997 55.1667 5.22 59.46 13.9C61.98 9.88666 65.34 6.71333 69.54 4.38C73.8333 2.04666 78.4533 0.879997 83.4 0.879997C92.08 0.879997 98.8933 3.49333 103.84 8.72C108.787 13.9467 111.26 21.74 111.26 32.1V72H96.42V33.64C96.42 20.2 91.2867 13.48 81.02 13.48C75.7933 13.48 71.5 15.44 68.14 19.36C64.8733 23.28 63.24 28.88 63.24 36.16V72H48.4V33.64C48.4 20.2 43.22 13.48 32.86 13.48C27.7267 13.48 23.48 15.44 20.12 19.36C16.8533 23.28 15.22 28.88 15.22 36.16V72H0.380005Z" fill="#181717"/>
<path d="M147.942 73.68C142.062 73.68 137.209 72.7 133.382 70.74C129.556 68.78 126.709 66.2133 124.842 63.04C122.976 59.7733 122.042 56.2267 122.042 52.4C122.042 45.68 124.656 40.36 129.882 36.44C135.109 32.52 142.576 30.56 152.282 30.56H170.482V29.3C170.482 23.8867 168.989 19.8267 166.002 17.12C163.109 14.4133 159.329 13.06 154.662 13.06C150.556 13.06 146.962 14.0867 143.882 16.14C140.896 18.1 139.076 21.04 138.422 24.96H123.582C124.049 19.92 125.729 15.6267 128.622 12.08C131.609 8.44 135.342 5.68666 139.822 3.82C144.396 1.86 149.389 0.879997 154.802 0.879997C164.509 0.879997 172.022 3.44666 177.342 8.58C182.662 13.62 185.322 20.5267 185.322 29.3V72H172.442L171.182 60.1C169.222 63.9267 166.376 67.1467 162.642 69.76C158.909 72.3733 154.009 73.68 147.942 73.68ZM150.882 61.64C154.896 61.64 158.256 60.7067 160.962 58.84C163.762 56.88 165.909 54.3133 167.402 51.14C168.989 47.9667 169.969 44.4667 170.342 40.64H153.822C147.942 40.64 143.742 41.6667 141.222 43.72C138.796 45.7733 137.582 48.34 137.582 51.42C137.582 54.5933 138.749 57.1133 141.082 58.98C143.509 60.7533 146.776 61.64 150.882 61.64Z" fill="#181717"/>
<path d="M204.305 72.84C201.505 72.84 199.172 71.9533 197.305 70.18C195.532 68.3133 194.645 66.12 194.645 63.6C194.645 60.9867 195.532 58.7933 197.305 57.02C199.172 55.1533 201.505 54.22 204.305 54.22C207.105 54.22 209.392 55.1533 211.165 57.02C212.939 58.7933 213.825 60.9867 213.825 63.6C213.825 66.12 212.939 68.3133 211.165 70.18C209.392 71.9533 207.105 72.84 204.305 72.84Z" fill="#181717"/>
</svg>
